<mxfile host="app.diagrams.net" agent="Mozilla/5.0 (Windows NT 10.0; Win64; x64) AppleWebKit/537.36 (KHTML, like Gecko) Chrome/141.0.0.0 Safari/537.36" version="28.1.2">
  <diagram name="Page-1" id="v6MTLEla_tl_X5panCw0">
    <mxGraphModel dx="2593" dy="1413" grid="1" gridSize="10" guides="1" tooltips="1" connect="1" arrows="1" fold="1" page="1" pageScale="1" pageWidth="1200" pageHeight="1920" math="0" shadow="0">
      <root>
        <mxCell id="0" />
        <mxCell id="1" parent="0" />
        <mxCell id="Gz_NziJzoW6N0oe-woC1-12" value="" style="rounded=0;whiteSpace=wrap;html=1;strokeWidth=2;" vertex="1" parent="1">
          <mxGeometry x="89" y="110" width="841" height="1180" as="geometry" />
        </mxCell>
        <mxCell id="Gz_NziJzoW6N0oe-woC1-91" value="" style="endArrow=classic;html=1;rounded=0;dashed=1;exitX=1;exitY=0;exitDx=0;exitDy=0;entryX=0.5;entryY=1;entryDx=0;entryDy=0;" edge="1" parent="1" source="Gz_NziJzoW6N0oe-woC1-61" target="Gz_NziJzoW6N0oe-woC1-24">
          <mxGeometry width="50" height="50" relative="1" as="geometry">
            <mxPoint x="650" y="880" as="sourcePoint" />
            <mxPoint x="590" y="940" as="targetPoint" />
          </mxGeometry>
        </mxCell>
        <mxCell id="Gz_NziJzoW6N0oe-woC1-1" value="Faculty" style="shape=umlActor;verticalLabelPosition=bottom;verticalAlign=top;html=1;outlineConnect=0;" vertex="1" parent="1">
          <mxGeometry x="20" y="590" width="30" height="60" as="geometry" />
        </mxCell>
        <mxCell id="Gz_NziJzoW6N0oe-woC1-4" value="Student" style="shape=umlActor;verticalLabelPosition=bottom;verticalAlign=top;html=1;outlineConnect=0;" vertex="1" parent="1">
          <mxGeometry x="20" y="850" width="30" height="60" as="geometry" />
        </mxCell>
        <mxCell id="Gz_NziJzoW6N0oe-woC1-5" value="Admin" style="shape=umlActor;verticalLabelPosition=bottom;verticalAlign=top;html=1;outlineConnect=0;" vertex="1" parent="1">
          <mxGeometry x="980" y="730" width="30" height="60" as="geometry" />
        </mxCell>
        <mxCell id="Gz_NziJzoW6N0oe-woC1-9" value="&lt;b&gt;&lt;font style=&quot;font-size: 18px;&quot;&gt;AIUB Lifeline&lt;/font&gt;&lt;/b&gt;" style="text;html=1;align=center;verticalAlign=middle;whiteSpace=wrap;rounded=0;" vertex="1" parent="1">
          <mxGeometry x="434.5" y="70" width="150" height="30" as="geometry" />
        </mxCell>
        <mxCell id="Gz_NziJzoW6N0oe-woC1-10" value="System&lt;div&gt;&lt;br&gt;&lt;/div&gt;&lt;div&gt;&lt;br&gt;&lt;/div&gt;&lt;div&gt;&lt;br&gt;&lt;/div&gt;&lt;div&gt;&lt;br&gt;&lt;/div&gt;" style="rounded=0;whiteSpace=wrap;html=1;" vertex="1" parent="1">
          <mxGeometry x="960" y="470" width="70" height="90" as="geometry" />
        </mxCell>
        <mxCell id="Gz_NziJzoW6N0oe-woC1-13" value="&lt;font style=&quot;font-size: 14px;&quot;&gt;Login&lt;/font&gt;" style="ellipse;whiteSpace=wrap;html=1;" vertex="1" parent="1">
          <mxGeometry x="139" y="120" width="100" height="60" as="geometry" />
        </mxCell>
        <mxCell id="Gz_NziJzoW6N0oe-woC1-14" value="&lt;font style=&quot;font-size: 14px;&quot;&gt;Validate Credentials&lt;/font&gt;" style="ellipse;whiteSpace=wrap;html=1;" vertex="1" parent="1">
          <mxGeometry x="800" y="120" width="100" height="60" as="geometry" />
        </mxCell>
        <mxCell id="Gz_NziJzoW6N0oe-woC1-15" value="&lt;font style=&quot;font-size: 14px;&quot;&gt;Register&lt;/font&gt;" style="ellipse;whiteSpace=wrap;html=1;" vertex="1" parent="1">
          <mxGeometry x="339" y="160" width="100" height="60" as="geometry" />
        </mxCell>
        <mxCell id="Gz_NziJzoW6N0oe-woC1-16" value="&lt;font style=&quot;font-size: 14px;&quot;&gt;Validate Information&lt;/font&gt;" style="ellipse;whiteSpace=wrap;html=1;" vertex="1" parent="1">
          <mxGeometry x="650" y="200" width="100" height="60" as="geometry" />
        </mxCell>
        <mxCell id="Gz_NziJzoW6N0oe-woC1-18" value="" style="endArrow=none;html=1;rounded=0;exitX=1;exitY=0.3333333333333333;exitDx=0;exitDy=0;exitPerimeter=0;entryX=0;entryY=0.5;entryDx=0;entryDy=0;" edge="1" parent="1" source="Gz_NziJzoW6N0oe-woC1-1" target="Gz_NziJzoW6N0oe-woC1-13">
          <mxGeometry width="50" height="50" relative="1" as="geometry">
            <mxPoint x="140" y="470" as="sourcePoint" />
            <mxPoint x="190" y="420" as="targetPoint" />
          </mxGeometry>
        </mxCell>
        <mxCell id="Gz_NziJzoW6N0oe-woC1-19" value="" style="endArrow=none;html=1;rounded=0;exitX=1;exitY=0.3333333333333333;exitDx=0;exitDy=0;exitPerimeter=0;entryX=0;entryY=0.5;entryDx=0;entryDy=0;" edge="1" parent="1" source="Gz_NziJzoW6N0oe-woC1-1" target="Gz_NziJzoW6N0oe-woC1-15">
          <mxGeometry width="50" height="50" relative="1" as="geometry">
            <mxPoint x="150" y="430" as="sourcePoint" />
            <mxPoint x="200" y="380" as="targetPoint" />
          </mxGeometry>
        </mxCell>
        <mxCell id="Gz_NziJzoW6N0oe-woC1-20" value="" style="endArrow=none;html=1;rounded=0;exitX=1;exitY=0.3333333333333333;exitDx=0;exitDy=0;exitPerimeter=0;entryX=0;entryY=0.5;entryDx=0;entryDy=0;" edge="1" parent="1" source="Gz_NziJzoW6N0oe-woC1-4" target="Gz_NziJzoW6N0oe-woC1-13">
          <mxGeometry width="50" height="50" relative="1" as="geometry">
            <mxPoint x="170" y="530" as="sourcePoint" />
            <mxPoint x="220" y="480" as="targetPoint" />
          </mxGeometry>
        </mxCell>
        <mxCell id="Gz_NziJzoW6N0oe-woC1-21" value="" style="endArrow=none;html=1;rounded=0;exitX=1;exitY=0.3333333333333333;exitDx=0;exitDy=0;exitPerimeter=0;entryX=0;entryY=0.5;entryDx=0;entryDy=0;" edge="1" parent="1" source="Gz_NziJzoW6N0oe-woC1-4" target="Gz_NziJzoW6N0oe-woC1-15">
          <mxGeometry width="50" height="50" relative="1" as="geometry">
            <mxPoint x="120" y="560" as="sourcePoint" />
            <mxPoint x="170" y="510" as="targetPoint" />
          </mxGeometry>
        </mxCell>
        <mxCell id="Gz_NziJzoW6N0oe-woC1-22" value="" style="endArrow=classic;html=1;rounded=0;dashed=1;exitX=1;exitY=0.5;exitDx=0;exitDy=0;entryX=0;entryY=0.5;entryDx=0;entryDy=0;" edge="1" parent="1" source="Gz_NziJzoW6N0oe-woC1-15" target="Gz_NziJzoW6N0oe-woC1-16">
          <mxGeometry width="50" height="50" relative="1" as="geometry">
            <mxPoint x="230" y="450" as="sourcePoint" />
            <mxPoint x="280" y="400" as="targetPoint" />
          </mxGeometry>
        </mxCell>
        <mxCell id="Gz_NziJzoW6N0oe-woC1-23" value="" style="endArrow=classic;html=1;rounded=0;dashed=1;exitX=1;exitY=0.5;exitDx=0;exitDy=0;entryX=0;entryY=0.5;entryDx=0;entryDy=0;" edge="1" parent="1" source="Gz_NziJzoW6N0oe-woC1-13" target="Gz_NziJzoW6N0oe-woC1-14">
          <mxGeometry width="50" height="50" relative="1" as="geometry">
            <mxPoint x="240" y="490" as="sourcePoint" />
            <mxPoint x="290" y="440" as="targetPoint" />
          </mxGeometry>
        </mxCell>
        <mxCell id="Gz_NziJzoW6N0oe-woC1-24" value="&lt;font style=&quot;font-size: 14px;&quot;&gt;Save to Database&lt;/font&gt;" style="ellipse;whiteSpace=wrap;html=1;" vertex="1" parent="1">
          <mxGeometry x="780" y="500" width="100" height="60" as="geometry" />
        </mxCell>
        <mxCell id="Gz_NziJzoW6N0oe-woC1-25" value="" style="endArrow=classic;html=1;rounded=0;dashed=1;exitX=0.5;exitY=1;exitDx=0;exitDy=0;entryX=0.5;entryY=0;entryDx=0;entryDy=0;" edge="1" parent="1" source="Gz_NziJzoW6N0oe-woC1-16" target="Gz_NziJzoW6N0oe-woC1-24">
          <mxGeometry width="50" height="50" relative="1" as="geometry">
            <mxPoint x="270" y="290" as="sourcePoint" />
            <mxPoint x="369" y="290" as="targetPoint" />
          </mxGeometry>
        </mxCell>
        <mxCell id="Gz_NziJzoW6N0oe-woC1-29" value="" style="endArrow=none;html=1;rounded=0;exitX=1;exitY=0.5;exitDx=0;exitDy=0;entryX=0;entryY=0.5;entryDx=0;entryDy=0;" edge="1" parent="1" source="Gz_NziJzoW6N0oe-woC1-24" target="Gz_NziJzoW6N0oe-woC1-10">
          <mxGeometry width="50" height="50" relative="1" as="geometry">
            <mxPoint x="650" y="410" as="sourcePoint" />
            <mxPoint x="700" y="360" as="targetPoint" />
          </mxGeometry>
        </mxCell>
        <mxCell id="Gz_NziJzoW6N0oe-woC1-30" value="" style="endArrow=none;html=1;rounded=0;entryX=1;entryY=0.5;entryDx=0;entryDy=0;exitX=0;exitY=0.5;exitDx=0;exitDy=0;" edge="1" parent="1" source="Gz_NziJzoW6N0oe-woC1-10" target="Gz_NziJzoW6N0oe-woC1-16">
          <mxGeometry width="50" height="50" relative="1" as="geometry">
            <mxPoint x="340" y="440" as="sourcePoint" />
            <mxPoint x="390" y="390" as="targetPoint" />
          </mxGeometry>
        </mxCell>
        <mxCell id="Gz_NziJzoW6N0oe-woC1-31" value="" style="endArrow=none;html=1;rounded=0;entryX=0.5;entryY=1;entryDx=0;entryDy=0;exitX=0;exitY=0.5;exitDx=0;exitDy=0;" edge="1" parent="1" source="Gz_NziJzoW6N0oe-woC1-10" target="Gz_NziJzoW6N0oe-woC1-14">
          <mxGeometry width="50" height="50" relative="1" as="geometry">
            <mxPoint x="500" y="480" as="sourcePoint" />
            <mxPoint x="550" y="430" as="targetPoint" />
          </mxGeometry>
        </mxCell>
        <mxCell id="Gz_NziJzoW6N0oe-woC1-33" value="&lt;font style=&quot;font-size: 14px;&quot;&gt;Upload&amp;nbsp;&lt;/font&gt;&lt;div&gt;&lt;font style=&quot;font-size: 14px;&quot;&gt;TSF&lt;/font&gt;&lt;/div&gt;" style="ellipse;whiteSpace=wrap;html=1;" vertex="1" parent="1">
          <mxGeometry x="400" y="320" width="100" height="60" as="geometry" />
        </mxCell>
        <mxCell id="Gz_NziJzoW6N0oe-woC1-34" value="&lt;span style=&quot;font-size: 14px;&quot;&gt;View&amp;nbsp;&lt;/span&gt;&lt;div&gt;&lt;span style=&quot;font-size: 14px;&quot;&gt;TSF&lt;/span&gt;&lt;/div&gt;" style="ellipse;whiteSpace=wrap;html=1;" vertex="1" parent="1">
          <mxGeometry x="320" y="440" width="100" height="60" as="geometry" />
        </mxCell>
        <mxCell id="Gz_NziJzoW6N0oe-woC1-35" value="" style="endArrow=none;html=1;rounded=0;entryX=0;entryY=0.5;entryDx=0;entryDy=0;exitX=1;exitY=0.3333333333333333;exitDx=0;exitDy=0;exitPerimeter=0;" edge="1" parent="1" source="Gz_NziJzoW6N0oe-woC1-1" target="Gz_NziJzoW6N0oe-woC1-33">
          <mxGeometry width="50" height="50" relative="1" as="geometry">
            <mxPoint x="130" y="510" as="sourcePoint" />
            <mxPoint x="180" y="460" as="targetPoint" />
          </mxGeometry>
        </mxCell>
        <mxCell id="Gz_NziJzoW6N0oe-woC1-36" value="" style="endArrow=none;html=1;rounded=0;exitX=1;exitY=0.3333333333333333;exitDx=0;exitDy=0;exitPerimeter=0;entryX=0;entryY=0.5;entryDx=0;entryDy=0;" edge="1" parent="1" source="Gz_NziJzoW6N0oe-woC1-4" target="Gz_NziJzoW6N0oe-woC1-34">
          <mxGeometry width="50" height="50" relative="1" as="geometry">
            <mxPoint x="160" y="690" as="sourcePoint" />
            <mxPoint x="210" y="640" as="targetPoint" />
          </mxGeometry>
        </mxCell>
        <mxCell id="Gz_NziJzoW6N0oe-woC1-37" value="&lt;span style=&quot;font-size: 14px;&quot;&gt;View&amp;nbsp;&lt;/span&gt;&lt;div&gt;&lt;span style=&quot;font-size: 14px;&quot;&gt;Faculty List&lt;/span&gt;&lt;span style=&quot;color: rgba(0, 0, 0, 0); font-family: monospace; font-size: 0px; text-align: start; text-wrap-mode: nowrap; background-color: transparent;&quot;&gt;%3CmxGraphModel%3E%3Croot%3E%3CmxCell%20id%3D%220%22%2F%3E%3CmxCell%20id%3D%221%22%20parent%3D%220%22%2F%3E%3CmxCell%20id%3D%222%22%20value%3D%22%26lt%3Bspan%20style%3D%26quot%3Bfont-size%3A%2014px%3B%26quot%3B%26gt%3BView%26amp%3Bnbsp%3B%26lt%3B%2Fspan%26gt%3B%26lt%3Bdiv%26gt%3B%26lt%3Bspan%20style%3D%26quot%3Bfont-size%3A%2014px%3B%26quot%3B%26gt%3BTSF%26lt%3B%2Fspan%26gt%3B%26lt%3B%2Fdiv%26gt%3B%22%20style%3D%22ellipse%3BwhiteSpace%3Dwrap%3Bhtml%3D1%3B%22%20vertex%3D%221%22%20parent%3D%221%22%3E%3CmxGeometry%20x%3D%22170%22%20y%3D%22495%22%20width%3D%22100%22%20height%3D%2260%22%20as%3D%22geometry%22%2F%3E%3C%2FmxCell%3E%3C%2Froot%3E%3C%2FmxGraphModel%3E&lt;/span&gt;&lt;/div&gt;" style="ellipse;whiteSpace=wrap;html=1;" vertex="1" parent="1">
          <mxGeometry x="420" y="390" width="100" height="60" as="geometry" />
        </mxCell>
        <mxCell id="Gz_NziJzoW6N0oe-woC1-38" value="&lt;span style=&quot;font-size: 14px;&quot;&gt;Search&lt;/span&gt;&lt;div&gt;&lt;span style=&quot;font-size: 14px;&quot;&gt;Faculty&lt;/span&gt;&lt;/div&gt;" style="ellipse;whiteSpace=wrap;html=1;" vertex="1" parent="1">
          <mxGeometry x="510" y="450" width="100" height="60" as="geometry" />
        </mxCell>
        <mxCell id="Gz_NziJzoW6N0oe-woC1-39" value="" style="endArrow=classic;html=1;rounded=0;dashed=1;exitX=0;exitY=0.5;exitDx=0;exitDy=0;entryX=0.5;entryY=0;entryDx=0;entryDy=0;" edge="1" parent="1" source="Gz_NziJzoW6N0oe-woC1-37" target="Gz_NziJzoW6N0oe-woC1-34">
          <mxGeometry width="50" height="50" relative="1" as="geometry">
            <mxPoint x="280" y="300" as="sourcePoint" />
            <mxPoint x="360" y="250" as="targetPoint" />
          </mxGeometry>
        </mxCell>
        <mxCell id="Gz_NziJzoW6N0oe-woC1-40" value="" style="endArrow=classic;html=1;rounded=0;dashed=1;exitX=0;exitY=0.5;exitDx=0;exitDy=0;entryX=1;entryY=0.5;entryDx=0;entryDy=0;" edge="1" parent="1" source="Gz_NziJzoW6N0oe-woC1-38" target="Gz_NziJzoW6N0oe-woC1-34">
          <mxGeometry width="50" height="50" relative="1" as="geometry">
            <mxPoint x="380" y="630" as="sourcePoint" />
            <mxPoint x="460" y="580" as="targetPoint" />
          </mxGeometry>
        </mxCell>
        <mxCell id="Gz_NziJzoW6N0oe-woC1-41" value="&lt;span style=&quot;font-size: 14px;&quot;&gt;Upload&amp;nbsp;&lt;/span&gt;&lt;div&gt;&lt;span style=&quot;font-size: 14px;&quot;&gt;Lecture Materials&lt;/span&gt;&lt;/div&gt;" style="ellipse;whiteSpace=wrap;html=1;" vertex="1" parent="1">
          <mxGeometry x="370" y="240" width="100" height="60" as="geometry" />
        </mxCell>
        <mxCell id="Gz_NziJzoW6N0oe-woC1-42" value="" style="endArrow=classic;html=1;rounded=0;dashed=1;exitX=1;exitY=1;exitDx=0;exitDy=0;entryX=0;entryY=0;entryDx=0;entryDy=0;" edge="1" parent="1" source="Gz_NziJzoW6N0oe-woC1-33" target="Gz_NziJzoW6N0oe-woC1-24">
          <mxGeometry width="50" height="50" relative="1" as="geometry">
            <mxPoint x="440" y="460" as="sourcePoint" />
            <mxPoint x="330" y="585" as="targetPoint" />
          </mxGeometry>
        </mxCell>
        <mxCell id="Gz_NziJzoW6N0oe-woC1-43" value="" style="endArrow=none;html=1;rounded=0;exitX=1;exitY=0.3333333333333333;exitDx=0;exitDy=0;exitPerimeter=0;entryX=0;entryY=0.5;entryDx=0;entryDy=0;" edge="1" parent="1" source="Gz_NziJzoW6N0oe-woC1-1" target="Gz_NziJzoW6N0oe-woC1-41">
          <mxGeometry width="50" height="50" relative="1" as="geometry">
            <mxPoint x="120" y="540" as="sourcePoint" />
            <mxPoint x="170" y="490" as="targetPoint" />
          </mxGeometry>
        </mxCell>
        <mxCell id="Gz_NziJzoW6N0oe-woC1-44" value="" style="endArrow=classic;html=1;rounded=0;dashed=1;exitX=1;exitY=0.5;exitDx=0;exitDy=0;entryX=0;entryY=0;entryDx=0;entryDy=0;" edge="1" parent="1" source="Gz_NziJzoW6N0oe-woC1-41" target="Gz_NziJzoW6N0oe-woC1-24">
          <mxGeometry width="50" height="50" relative="1" as="geometry">
            <mxPoint x="330" y="460" as="sourcePoint" />
            <mxPoint x="650" y="518" as="targetPoint" />
          </mxGeometry>
        </mxCell>
        <mxCell id="Gz_NziJzoW6N0oe-woC1-45" value="&lt;span style=&quot;font-size: 14px;&quot;&gt;Upload&amp;nbsp;&lt;/span&gt;&lt;div&gt;&lt;span style=&quot;font-size: 14px;&quot;&gt;Lecture Notes&lt;/span&gt;&lt;/div&gt;" style="ellipse;whiteSpace=wrap;html=1;" vertex="1" parent="1">
          <mxGeometry x="380" y="515" width="100" height="60" as="geometry" />
        </mxCell>
        <mxCell id="Gz_NziJzoW6N0oe-woC1-46" value="" style="endArrow=none;html=1;rounded=0;exitX=1;exitY=0.3333333333333333;exitDx=0;exitDy=0;exitPerimeter=0;entryX=0;entryY=0.5;entryDx=0;entryDy=0;" edge="1" parent="1" source="Gz_NziJzoW6N0oe-woC1-4" target="Gz_NziJzoW6N0oe-woC1-45">
          <mxGeometry width="50" height="50" relative="1" as="geometry">
            <mxPoint x="290" y="730" as="sourcePoint" />
            <mxPoint x="340" y="680" as="targetPoint" />
          </mxGeometry>
        </mxCell>
        <mxCell id="Gz_NziJzoW6N0oe-woC1-47" value="" style="endArrow=classic;html=1;rounded=0;dashed=1;exitX=1;exitY=0.5;exitDx=0;exitDy=0;entryX=0;entryY=0.5;entryDx=0;entryDy=0;" edge="1" parent="1" source="Gz_NziJzoW6N0oe-woC1-45" target="Gz_NziJzoW6N0oe-woC1-24">
          <mxGeometry width="50" height="50" relative="1" as="geometry">
            <mxPoint x="450" y="672" as="sourcePoint" />
            <mxPoint x="440" y="572" as="targetPoint" />
          </mxGeometry>
        </mxCell>
        <mxCell id="Gz_NziJzoW6N0oe-woC1-48" value="&lt;span style=&quot;font-size: 14px;&quot;&gt;View Lecture&lt;/span&gt;&lt;div&gt;&lt;span style=&quot;font-size: 14px;&quot;&gt;Notes &amp;amp; Materials&lt;/span&gt;&lt;/div&gt;" style="ellipse;whiteSpace=wrap;html=1;" vertex="1" parent="1">
          <mxGeometry x="350" y="610" width="110" height="70" as="geometry" />
        </mxCell>
        <mxCell id="Gz_NziJzoW6N0oe-woC1-49" value="" style="endArrow=none;html=1;rounded=0;entryX=1;entryY=0.3333333333333333;entryDx=0;entryDy=0;entryPerimeter=0;exitX=0;exitY=0.5;exitDx=0;exitDy=0;" edge="1" parent="1" source="Gz_NziJzoW6N0oe-woC1-48" target="Gz_NziJzoW6N0oe-woC1-4">
          <mxGeometry width="50" height="50" relative="1" as="geometry">
            <mxPoint x="110" y="820" as="sourcePoint" />
            <mxPoint x="160" y="770" as="targetPoint" />
          </mxGeometry>
        </mxCell>
        <mxCell id="Gz_NziJzoW6N0oe-woC1-50" value="&lt;span style=&quot;font-size: 14px;&quot;&gt;Search Notes&amp;nbsp;&lt;/span&gt;&lt;div&gt;&lt;span style=&quot;font-size: 14px;&quot;&gt;&amp;amp; Materials&lt;/span&gt;&lt;/div&gt;" style="ellipse;whiteSpace=wrap;html=1;" vertex="1" parent="1">
          <mxGeometry x="470" y="560" width="110" height="70" as="geometry" />
        </mxCell>
        <mxCell id="Gz_NziJzoW6N0oe-woC1-51" value="" style="endArrow=classic;html=1;rounded=0;dashed=1;exitX=0;exitY=0.5;exitDx=0;exitDy=0;entryX=1;entryY=0;entryDx=0;entryDy=0;" edge="1" parent="1" source="Gz_NziJzoW6N0oe-woC1-50" target="Gz_NziJzoW6N0oe-woC1-48">
          <mxGeometry width="50" height="50" relative="1" as="geometry">
            <mxPoint x="490" y="690" as="sourcePoint" />
            <mxPoint x="920" y="570" as="targetPoint" />
          </mxGeometry>
        </mxCell>
        <mxCell id="Gz_NziJzoW6N0oe-woC1-52" value="&lt;span style=&quot;font-size: 14px;&quot;&gt;View lost&amp;nbsp;&lt;/span&gt;&lt;div&gt;&lt;span style=&quot;font-size: 14px;&quot;&gt;items&lt;/span&gt;&lt;/div&gt;" style="ellipse;whiteSpace=wrap;html=1;" vertex="1" parent="1">
          <mxGeometry x="370" y="810" width="100" height="60" as="geometry" />
        </mxCell>
        <mxCell id="Gz_NziJzoW6N0oe-woC1-53" value="&lt;span style=&quot;font-size: 14px;&quot;&gt;Search lost&amp;nbsp;&lt;/span&gt;&lt;div&gt;&lt;span style=&quot;font-size: 14px;&quot;&gt;items&lt;/span&gt;&lt;/div&gt;" style="ellipse;whiteSpace=wrap;html=1;" vertex="1" parent="1">
          <mxGeometry x="490" y="740" width="100" height="60" as="geometry" />
        </mxCell>
        <mxCell id="Gz_NziJzoW6N0oe-woC1-54" value="&lt;span style=&quot;font-size: 14px;&quot;&gt;Post lost&amp;nbsp;&lt;/span&gt;&lt;div&gt;&lt;span style=&quot;font-size: 14px;&quot;&gt;items&lt;/span&gt;&lt;/div&gt;" style="ellipse;whiteSpace=wrap;html=1;" vertex="1" parent="1">
          <mxGeometry x="370" y="720" width="100" height="60" as="geometry" />
        </mxCell>
        <mxCell id="Gz_NziJzoW6N0oe-woC1-55" value="&lt;span style=&quot;font-size: 14px;&quot;&gt;Post&amp;nbsp;&lt;/span&gt;&lt;div&gt;&lt;span style=&quot;font-size: 14px;&quot;&gt;Questions&lt;/span&gt;&lt;/div&gt;" style="ellipse;whiteSpace=wrap;html=1;" vertex="1" parent="1">
          <mxGeometry x="370" y="900" width="100" height="60" as="geometry" />
        </mxCell>
        <mxCell id="Gz_NziJzoW6N0oe-woC1-56" value="&lt;span style=&quot;font-size: 14px;&quot;&gt;Answer&lt;/span&gt;&lt;div&gt;&lt;span style=&quot;font-size: 14px;&quot;&gt;Questions&lt;/span&gt;&lt;/div&gt;" style="ellipse;whiteSpace=wrap;html=1;" vertex="1" parent="1">
          <mxGeometry x="489" y="930" width="100" height="60" as="geometry" />
        </mxCell>
        <mxCell id="Gz_NziJzoW6N0oe-woC1-57" value="&lt;span style=&quot;font-size: 14px;&quot;&gt;View&amp;nbsp;&lt;/span&gt;&lt;div&gt;&lt;span style=&quot;font-size: 14px;&quot;&gt;Questions&lt;/span&gt;&lt;/div&gt;" style="ellipse;whiteSpace=wrap;html=1;" vertex="1" parent="1">
          <mxGeometry x="370" y="1030" width="100" height="60" as="geometry" />
        </mxCell>
        <mxCell id="Gz_NziJzoW6N0oe-woC1-58" value="&lt;span style=&quot;font-size: 14px;&quot;&gt;Search&amp;nbsp;&lt;/span&gt;&lt;div&gt;&lt;span style=&quot;font-size: 14px;&quot;&gt;Questions&lt;/span&gt;&lt;/div&gt;" style="ellipse;whiteSpace=wrap;html=1;" vertex="1" parent="1">
          <mxGeometry x="500" y="1090" width="100" height="60" as="geometry" />
        </mxCell>
        <mxCell id="Gz_NziJzoW6N0oe-woC1-59" value="&lt;font style=&quot;font-size: 14px;&quot;&gt;Logout&lt;/font&gt;" style="ellipse;whiteSpace=wrap;html=1;" vertex="1" parent="1">
          <mxGeometry x="150" y="230" width="100" height="60" as="geometry" />
        </mxCell>
        <mxCell id="Gz_NziJzoW6N0oe-woC1-60" value="&lt;span style=&quot;font-size: 14px;&quot;&gt;View&amp;nbsp;&lt;/span&gt;&lt;div&gt;&lt;span style=&quot;font-size: 14px;&quot;&gt;Blogs&lt;/span&gt;&lt;/div&gt;" style="ellipse;whiteSpace=wrap;html=1;" vertex="1" parent="1">
          <mxGeometry x="370" y="1120" width="100" height="60" as="geometry" />
        </mxCell>
        <mxCell id="Gz_NziJzoW6N0oe-woC1-61" value="&lt;span style=&quot;font-size: 14px;&quot;&gt;Post&lt;/span&gt;&lt;div&gt;&lt;span style=&quot;font-size: 14px;&quot;&gt;Blogs&lt;/span&gt;&lt;/div&gt;" style="ellipse;whiteSpace=wrap;html=1;" vertex="1" parent="1">
          <mxGeometry x="370" y="1220" width="100" height="60" as="geometry" />
        </mxCell>
        <mxCell id="Gz_NziJzoW6N0oe-woC1-62" value="" style="endArrow=none;html=1;rounded=0;exitX=1;exitY=0.3333333333333333;exitDx=0;exitDy=0;exitPerimeter=0;entryX=0;entryY=0.5;entryDx=0;entryDy=0;" edge="1" parent="1" source="Gz_NziJzoW6N0oe-woC1-4" target="Gz_NziJzoW6N0oe-woC1-54">
          <mxGeometry width="50" height="50" relative="1" as="geometry">
            <mxPoint x="200" y="890" as="sourcePoint" />
            <mxPoint x="250" y="840" as="targetPoint" />
          </mxGeometry>
        </mxCell>
        <mxCell id="Gz_NziJzoW6N0oe-woC1-63" value="" style="endArrow=none;html=1;rounded=0;exitX=1;exitY=0.3333333333333333;exitDx=0;exitDy=0;exitPerimeter=0;entryX=0;entryY=0.5;entryDx=0;entryDy=0;" edge="1" parent="1" source="Gz_NziJzoW6N0oe-woC1-4" target="Gz_NziJzoW6N0oe-woC1-52">
          <mxGeometry width="50" height="50" relative="1" as="geometry">
            <mxPoint x="170" y="930" as="sourcePoint" />
            <mxPoint x="220" y="880" as="targetPoint" />
          </mxGeometry>
        </mxCell>
        <mxCell id="Gz_NziJzoW6N0oe-woC1-64" value="" style="endArrow=none;html=1;rounded=0;exitX=1;exitY=0.3333333333333333;exitDx=0;exitDy=0;exitPerimeter=0;entryX=0;entryY=0.5;entryDx=0;entryDy=0;" edge="1" parent="1" source="Gz_NziJzoW6N0oe-woC1-4" target="Gz_NziJzoW6N0oe-woC1-55">
          <mxGeometry width="50" height="50" relative="1" as="geometry">
            <mxPoint x="200" y="930" as="sourcePoint" />
            <mxPoint x="250" y="880" as="targetPoint" />
          </mxGeometry>
        </mxCell>
        <mxCell id="Gz_NziJzoW6N0oe-woC1-65" value="" style="endArrow=none;html=1;rounded=0;exitX=0;exitY=0.5;exitDx=0;exitDy=0;entryX=1;entryY=0.3333333333333333;entryDx=0;entryDy=0;entryPerimeter=0;" edge="1" parent="1" source="Gz_NziJzoW6N0oe-woC1-57" target="Gz_NziJzoW6N0oe-woC1-4">
          <mxGeometry width="50" height="50" relative="1" as="geometry">
            <mxPoint x="160" y="1000" as="sourcePoint" />
            <mxPoint x="210" y="950" as="targetPoint" />
          </mxGeometry>
        </mxCell>
        <mxCell id="Gz_NziJzoW6N0oe-woC1-66" value="" style="endArrow=none;html=1;rounded=0;exitX=1;exitY=0.3333333333333333;exitDx=0;exitDy=0;exitPerimeter=0;entryX=0;entryY=0.5;entryDx=0;entryDy=0;" edge="1" parent="1" source="Gz_NziJzoW6N0oe-woC1-4" target="Gz_NziJzoW6N0oe-woC1-60">
          <mxGeometry width="50" height="50" relative="1" as="geometry">
            <mxPoint x="150" y="1080" as="sourcePoint" />
            <mxPoint x="200" y="1030" as="targetPoint" />
          </mxGeometry>
        </mxCell>
        <mxCell id="Gz_NziJzoW6N0oe-woC1-67" value="" style="endArrow=none;html=1;rounded=0;exitX=1;exitY=0.3333333333333333;exitDx=0;exitDy=0;exitPerimeter=0;entryX=0;entryY=0.5;entryDx=0;entryDy=0;" edge="1" parent="1" source="Gz_NziJzoW6N0oe-woC1-4" target="Gz_NziJzoW6N0oe-woC1-61">
          <mxGeometry width="50" height="50" relative="1" as="geometry">
            <mxPoint x="120" y="1100" as="sourcePoint" />
            <mxPoint x="170" y="1050" as="targetPoint" />
          </mxGeometry>
        </mxCell>
        <mxCell id="Gz_NziJzoW6N0oe-woC1-68" value="" style="endArrow=none;html=1;rounded=0;exitX=1;exitY=0.3333333333333333;exitDx=0;exitDy=0;exitPerimeter=0;entryX=0;entryY=0.5;entryDx=0;entryDy=0;" edge="1" parent="1" source="Gz_NziJzoW6N0oe-woC1-1" target="Gz_NziJzoW6N0oe-woC1-54">
          <mxGeometry width="50" height="50" relative="1" as="geometry">
            <mxPoint x="210" y="680" as="sourcePoint" />
            <mxPoint x="260" y="630" as="targetPoint" />
          </mxGeometry>
        </mxCell>
        <mxCell id="Gz_NziJzoW6N0oe-woC1-69" value="" style="endArrow=none;html=1;rounded=0;exitX=0;exitY=0.5;exitDx=0;exitDy=0;entryX=1;entryY=0.3333333333333333;entryDx=0;entryDy=0;entryPerimeter=0;" edge="1" parent="1" source="Gz_NziJzoW6N0oe-woC1-52" target="Gz_NziJzoW6N0oe-woC1-1">
          <mxGeometry width="50" height="50" relative="1" as="geometry">
            <mxPoint x="240" y="790" as="sourcePoint" />
            <mxPoint x="290" y="740" as="targetPoint" />
          </mxGeometry>
        </mxCell>
        <mxCell id="Gz_NziJzoW6N0oe-woC1-70" value="" style="endArrow=none;html=1;rounded=0;entryX=0;entryY=0.5;entryDx=0;entryDy=0;exitX=1;exitY=0.3333333333333333;exitDx=0;exitDy=0;exitPerimeter=0;" edge="1" parent="1" source="Gz_NziJzoW6N0oe-woC1-1" target="Gz_NziJzoW6N0oe-woC1-55">
          <mxGeometry width="50" height="50" relative="1" as="geometry">
            <mxPoint x="320" y="930" as="sourcePoint" />
            <mxPoint x="370" y="880" as="targetPoint" />
          </mxGeometry>
        </mxCell>
        <mxCell id="Gz_NziJzoW6N0oe-woC1-71" value="" style="endArrow=none;html=1;rounded=0;exitX=1;exitY=0.3333333333333333;exitDx=0;exitDy=0;exitPerimeter=0;entryX=0;entryY=0.5;entryDx=0;entryDy=0;" edge="1" parent="1" source="Gz_NziJzoW6N0oe-woC1-1" target="Gz_NziJzoW6N0oe-woC1-57">
          <mxGeometry width="50" height="50" relative="1" as="geometry">
            <mxPoint x="250" y="1010" as="sourcePoint" />
            <mxPoint x="300" y="960" as="targetPoint" />
          </mxGeometry>
        </mxCell>
        <mxCell id="Gz_NziJzoW6N0oe-woC1-72" value="" style="endArrow=none;html=1;rounded=0;entryX=1;entryY=0.3333333333333333;entryDx=0;entryDy=0;entryPerimeter=0;exitX=0;exitY=0.5;exitDx=0;exitDy=0;" edge="1" parent="1" source="Gz_NziJzoW6N0oe-woC1-60" target="Gz_NziJzoW6N0oe-woC1-1">
          <mxGeometry width="50" height="50" relative="1" as="geometry">
            <mxPoint x="110" y="1040" as="sourcePoint" />
            <mxPoint x="160" y="990" as="targetPoint" />
          </mxGeometry>
        </mxCell>
        <mxCell id="Gz_NziJzoW6N0oe-woC1-73" value="" style="endArrow=none;html=1;rounded=0;entryX=1;entryY=0.3333333333333333;entryDx=0;entryDy=0;entryPerimeter=0;exitX=0;exitY=0.5;exitDx=0;exitDy=0;" edge="1" parent="1" source="Gz_NziJzoW6N0oe-woC1-61" target="Gz_NziJzoW6N0oe-woC1-1">
          <mxGeometry width="50" height="50" relative="1" as="geometry">
            <mxPoint x="110" y="1150" as="sourcePoint" />
            <mxPoint x="160" y="1100" as="targetPoint" />
          </mxGeometry>
        </mxCell>
        <mxCell id="Gz_NziJzoW6N0oe-woC1-74" value="" style="endArrow=classic;html=1;rounded=0;dashed=1;exitX=0;exitY=0.5;exitDx=0;exitDy=0;entryX=1;entryY=0.5;entryDx=0;entryDy=0;" edge="1" parent="1" source="Gz_NziJzoW6N0oe-woC1-53" target="Gz_NziJzoW6N0oe-woC1-52">
          <mxGeometry width="50" height="50" relative="1" as="geometry">
            <mxPoint x="700" y="865" as="sourcePoint" />
            <mxPoint x="1000" y="850" as="targetPoint" />
          </mxGeometry>
        </mxCell>
        <mxCell id="Gz_NziJzoW6N0oe-woC1-75" value="" style="endArrow=classic;html=1;rounded=0;dashed=1;exitX=0.049;exitY=0.325;exitDx=0;exitDy=0;entryX=0.967;entryY=0.306;entryDx=0;entryDy=0;exitPerimeter=0;entryPerimeter=0;" edge="1" parent="1" source="Gz_NziJzoW6N0oe-woC1-56" target="Gz_NziJzoW6N0oe-woC1-57">
          <mxGeometry width="50" height="50" relative="1" as="geometry">
            <mxPoint x="540" y="935" as="sourcePoint" />
            <mxPoint x="840" y="920" as="targetPoint" />
          </mxGeometry>
        </mxCell>
        <mxCell id="Gz_NziJzoW6N0oe-woC1-76" value="" style="endArrow=classic;html=1;rounded=0;dashed=1;exitX=0;exitY=0.5;exitDx=0;exitDy=0;entryX=0.955;entryY=0.639;entryDx=0;entryDy=0;entryPerimeter=0;" edge="1" parent="1" source="Gz_NziJzoW6N0oe-woC1-58" target="Gz_NziJzoW6N0oe-woC1-57">
          <mxGeometry width="50" height="50" relative="1" as="geometry">
            <mxPoint x="640" y="1035" as="sourcePoint" />
            <mxPoint x="940" y="1020" as="targetPoint" />
          </mxGeometry>
        </mxCell>
        <mxCell id="Gz_NziJzoW6N0oe-woC1-77" value="" style="endArrow=none;html=1;rounded=0;exitX=0;exitY=0.3333333333333333;exitDx=0;exitDy=0;exitPerimeter=0;entryX=1;entryY=1;entryDx=0;entryDy=0;" edge="1" parent="1" source="Gz_NziJzoW6N0oe-woC1-5" target="Gz_NziJzoW6N0oe-woC1-34">
          <mxGeometry width="50" height="50" relative="1" as="geometry">
            <mxPoint x="760" y="720" as="sourcePoint" />
            <mxPoint x="810" y="670" as="targetPoint" />
          </mxGeometry>
        </mxCell>
        <mxCell id="Gz_NziJzoW6N0oe-woC1-78" value="" style="endArrow=none;html=1;rounded=0;exitX=0;exitY=0.3333333333333333;exitDx=0;exitDy=0;exitPerimeter=0;entryX=1;entryY=0.5;entryDx=0;entryDy=0;" edge="1" parent="1" source="Gz_NziJzoW6N0oe-woC1-5" target="Gz_NziJzoW6N0oe-woC1-48">
          <mxGeometry width="50" height="50" relative="1" as="geometry">
            <mxPoint x="1285" y="889" as="sourcePoint" />
            <mxPoint x="710" y="630" as="targetPoint" />
          </mxGeometry>
        </mxCell>
        <mxCell id="Gz_NziJzoW6N0oe-woC1-79" value="" style="endArrow=none;html=1;rounded=0;exitX=0;exitY=0.3333333333333333;exitDx=0;exitDy=0;exitPerimeter=0;entryX=1;entryY=0;entryDx=0;entryDy=0;" edge="1" parent="1" source="Gz_NziJzoW6N0oe-woC1-5" target="Gz_NziJzoW6N0oe-woC1-54">
          <mxGeometry width="50" height="50" relative="1" as="geometry">
            <mxPoint x="1315" y="989" as="sourcePoint" />
            <mxPoint x="740" y="730" as="targetPoint" />
          </mxGeometry>
        </mxCell>
        <mxCell id="Gz_NziJzoW6N0oe-woC1-80" value="" style="endArrow=none;html=1;rounded=0;entryX=0.955;entryY=0.659;entryDx=0;entryDy=0;entryPerimeter=0;" edge="1" parent="1" target="Gz_NziJzoW6N0oe-woC1-52">
          <mxGeometry width="50" height="50" relative="1" as="geometry">
            <mxPoint x="980" y="750" as="sourcePoint" />
            <mxPoint x="680" y="880" as="targetPoint" />
          </mxGeometry>
        </mxCell>
        <mxCell id="Gz_NziJzoW6N0oe-woC1-81" value="" style="endArrow=none;html=1;rounded=0;exitX=1;exitY=0.5;exitDx=0;exitDy=0;entryX=0;entryY=0.3333333333333333;entryDx=0;entryDy=0;entryPerimeter=0;" edge="1" parent="1" source="Gz_NziJzoW6N0oe-woC1-57" target="Gz_NziJzoW6N0oe-woC1-5">
          <mxGeometry width="50" height="50" relative="1" as="geometry">
            <mxPoint x="590" y="910" as="sourcePoint" />
            <mxPoint x="640" y="860" as="targetPoint" />
          </mxGeometry>
        </mxCell>
        <mxCell id="Gz_NziJzoW6N0oe-woC1-82" value="" style="endArrow=none;html=1;rounded=0;exitX=1;exitY=0.5;exitDx=0;exitDy=0;entryX=0;entryY=0.3333333333333333;entryDx=0;entryDy=0;entryPerimeter=0;" edge="1" parent="1" source="Gz_NziJzoW6N0oe-woC1-55" target="Gz_NziJzoW6N0oe-woC1-5">
          <mxGeometry width="50" height="50" relative="1" as="geometry">
            <mxPoint x="590" y="910" as="sourcePoint" />
            <mxPoint x="640" y="860" as="targetPoint" />
          </mxGeometry>
        </mxCell>
        <mxCell id="Gz_NziJzoW6N0oe-woC1-83" value="" style="endArrow=none;html=1;rounded=0;exitX=1;exitY=0;exitDx=0;exitDy=0;entryX=0;entryY=0.3333333333333333;entryDx=0;entryDy=0;entryPerimeter=0;" edge="1" parent="1" source="Gz_NziJzoW6N0oe-woC1-60" target="Gz_NziJzoW6N0oe-woC1-5">
          <mxGeometry width="50" height="50" relative="1" as="geometry">
            <mxPoint x="510" y="1240" as="sourcePoint" />
            <mxPoint x="560" y="1190" as="targetPoint" />
          </mxGeometry>
        </mxCell>
        <mxCell id="Gz_NziJzoW6N0oe-woC1-84" value="" style="endArrow=none;html=1;rounded=0;exitX=1;exitY=0.5;exitDx=0;exitDy=0;entryX=0;entryY=0.3333333333333333;entryDx=0;entryDy=0;entryPerimeter=0;" edge="1" parent="1" source="Gz_NziJzoW6N0oe-woC1-61" target="Gz_NziJzoW6N0oe-woC1-5">
          <mxGeometry width="50" height="50" relative="1" as="geometry">
            <mxPoint x="730" y="1070" as="sourcePoint" />
            <mxPoint x="780" y="1020" as="targetPoint" />
          </mxGeometry>
        </mxCell>
        <mxCell id="Gz_NziJzoW6N0oe-woC1-85" value="&lt;span style=&quot;font-size: 14px;&quot;&gt;Manage&lt;/span&gt;&lt;div&gt;&lt;span style=&quot;font-size: 14px;&quot;&gt;Users&lt;/span&gt;&lt;/div&gt;" style="ellipse;whiteSpace=wrap;html=1;" vertex="1" parent="1">
          <mxGeometry x="670" y="1030" width="100" height="60" as="geometry" />
        </mxCell>
        <mxCell id="Gz_NziJzoW6N0oe-woC1-86" value="&lt;span style=&quot;font-size: 14px;&quot;&gt;Manage&lt;/span&gt;&lt;div&gt;&lt;span style=&quot;font-size: 14px;&quot;&gt;Content&lt;/span&gt;&lt;/div&gt;" style="ellipse;whiteSpace=wrap;html=1;" vertex="1" parent="1">
          <mxGeometry x="810" y="1040" width="100" height="60" as="geometry" />
        </mxCell>
        <mxCell id="Gz_NziJzoW6N0oe-woC1-87" value="" style="endArrow=none;html=1;rounded=0;exitX=0.5;exitY=0;exitDx=0;exitDy=0;entryX=0;entryY=0.3333333333333333;entryDx=0;entryDy=0;entryPerimeter=0;" edge="1" parent="1" source="Gz_NziJzoW6N0oe-woC1-85" target="Gz_NziJzoW6N0oe-woC1-5">
          <mxGeometry width="50" height="50" relative="1" as="geometry">
            <mxPoint x="640" y="840" as="sourcePoint" />
            <mxPoint x="690" y="790" as="targetPoint" />
          </mxGeometry>
        </mxCell>
        <mxCell id="Gz_NziJzoW6N0oe-woC1-88" value="" style="endArrow=none;html=1;rounded=0;entryX=1;entryY=0;entryDx=0;entryDy=0;exitX=0;exitY=0.3333333333333333;exitDx=0;exitDy=0;exitPerimeter=0;" edge="1" parent="1" source="Gz_NziJzoW6N0oe-woC1-5" target="Gz_NziJzoW6N0oe-woC1-86">
          <mxGeometry width="50" height="50" relative="1" as="geometry">
            <mxPoint x="700" y="1170" as="sourcePoint" />
            <mxPoint x="750" y="1120" as="targetPoint" />
          </mxGeometry>
        </mxCell>
        <mxCell id="Gz_NziJzoW6N0oe-woC1-89" value="" style="endArrow=classic;html=1;rounded=0;dashed=1;exitX=1;exitY=0.5;exitDx=0;exitDy=0;entryX=0;entryY=1;entryDx=0;entryDy=0;" edge="1" parent="1" source="Gz_NziJzoW6N0oe-woC1-54" target="Gz_NziJzoW6N0oe-woC1-24">
          <mxGeometry width="50" height="50" relative="1" as="geometry">
            <mxPoint x="620" y="690" as="sourcePoint" />
            <mxPoint x="560" y="750" as="targetPoint" />
          </mxGeometry>
        </mxCell>
        <mxCell id="Gz_NziJzoW6N0oe-woC1-90" value="" style="endArrow=classic;html=1;rounded=0;dashed=1;exitX=1;exitY=0;exitDx=0;exitDy=0;entryX=0.5;entryY=1;entryDx=0;entryDy=0;" edge="1" parent="1" source="Gz_NziJzoW6N0oe-woC1-55" target="Gz_NziJzoW6N0oe-woC1-24">
          <mxGeometry width="50" height="50" relative="1" as="geometry">
            <mxPoint x="630" y="860" as="sourcePoint" />
            <mxPoint x="570" y="920" as="targetPoint" />
          </mxGeometry>
        </mxCell>
        <mxCell id="Gz_NziJzoW6N0oe-woC1-92" value="" style="endArrow=none;html=1;rounded=0;entryX=0;entryY=0.5;entryDx=0;entryDy=0;exitX=1;exitY=0.3333333333333333;exitDx=0;exitDy=0;exitPerimeter=0;" edge="1" parent="1" source="Gz_NziJzoW6N0oe-woC1-1" target="Gz_NziJzoW6N0oe-woC1-59">
          <mxGeometry width="50" height="50" relative="1" as="geometry">
            <mxPoint x="120" y="430" as="sourcePoint" />
            <mxPoint x="170" y="380" as="targetPoint" />
          </mxGeometry>
        </mxCell>
        <mxCell id="Gz_NziJzoW6N0oe-woC1-93" value="" style="endArrow=none;html=1;rounded=0;entryX=0;entryY=0.5;entryDx=0;entryDy=0;exitX=1;exitY=0.3333333333333333;exitDx=0;exitDy=0;exitPerimeter=0;" edge="1" parent="1" source="Gz_NziJzoW6N0oe-woC1-4" target="Gz_NziJzoW6N0oe-woC1-59">
          <mxGeometry width="50" height="50" relative="1" as="geometry">
            <mxPoint x="140" y="410" as="sourcePoint" />
            <mxPoint x="190" y="360" as="targetPoint" />
          </mxGeometry>
        </mxCell>
        <mxCell id="Gz_NziJzoW6N0oe-woC1-94" value="&amp;lt;&amp;lt;include&amp;gt;&amp;gt;" style="text;html=1;align=center;verticalAlign=middle;whiteSpace=wrap;rounded=0;" vertex="1" parent="1">
          <mxGeometry x="500" y="120" width="60" height="30" as="geometry" />
        </mxCell>
        <mxCell id="Gz_NziJzoW6N0oe-woC1-95" value="&amp;lt;&amp;lt;include&amp;gt;&amp;gt;" style="text;html=1;align=center;verticalAlign=middle;whiteSpace=wrap;rounded=0;" vertex="1" parent="1">
          <mxGeometry x="530" y="180" width="60" height="30" as="geometry" />
        </mxCell>
        <mxCell id="Gz_NziJzoW6N0oe-woC1-96" value="&amp;lt;&amp;lt;include&amp;gt;&amp;gt;" style="text;html=1;align=center;verticalAlign=middle;whiteSpace=wrap;rounded=0;" vertex="1" parent="1">
          <mxGeometry x="750" y="330" width="60" height="30" as="geometry" />
        </mxCell>
        <mxCell id="Gz_NziJzoW6N0oe-woC1-97" value="&amp;lt;&amp;lt;include&amp;gt;&amp;gt;" style="text;html=1;align=center;verticalAlign=middle;whiteSpace=wrap;rounded=0;" vertex="1" parent="1">
          <mxGeometry x="580" y="330" width="60" height="30" as="geometry" />
        </mxCell>
        <mxCell id="Gz_NziJzoW6N0oe-woC1-98" value="&amp;lt;&amp;lt;include&amp;gt;&amp;gt;" style="text;html=1;align=center;verticalAlign=middle;whiteSpace=wrap;rounded=0;" vertex="1" parent="1">
          <mxGeometry x="570" y="390" width="60" height="30" as="geometry" />
        </mxCell>
        <mxCell id="Gz_NziJzoW6N0oe-woC1-99" value="&amp;lt;&amp;lt;include&amp;gt;&amp;gt;" style="text;html=1;align=center;verticalAlign=middle;whiteSpace=wrap;rounded=0;" vertex="1" parent="1">
          <mxGeometry x="630" y="500" width="60" height="30" as="geometry" />
        </mxCell>
        <mxCell id="Gz_NziJzoW6N0oe-woC1-100" value="&amp;lt;&amp;lt;include&amp;gt;&amp;gt;" style="text;html=1;align=center;verticalAlign=middle;whiteSpace=wrap;rounded=0;" vertex="1" parent="1">
          <mxGeometry x="670" y="570" width="60" height="30" as="geometry" />
        </mxCell>
        <mxCell id="Gz_NziJzoW6N0oe-woC1-101" value="&amp;lt;&amp;lt;include&amp;gt;&amp;gt;" style="text;html=1;align=center;verticalAlign=middle;whiteSpace=wrap;rounded=0;" vertex="1" parent="1">
          <mxGeometry x="650" y="640" width="60" height="30" as="geometry" />
        </mxCell>
        <mxCell id="Gz_NziJzoW6N0oe-woC1-102" value="&amp;lt;&amp;lt;include&amp;gt;&amp;gt;" style="text;html=1;align=center;verticalAlign=middle;whiteSpace=wrap;rounded=0;" vertex="1" parent="1">
          <mxGeometry x="650" y="755" width="60" height="30" as="geometry" />
        </mxCell>
        <mxCell id="Gz_NziJzoW6N0oe-woC1-103" value="&lt;span style=&quot;font-size: 14px;&quot;&gt;Manage&lt;/span&gt;&lt;div&gt;&lt;span style=&quot;font-size: 14px;&quot;&gt;Database&lt;/span&gt;&lt;/div&gt;" style="ellipse;whiteSpace=wrap;html=1;" vertex="1" parent="1">
          <mxGeometry x="720" y="1090" width="100" height="60" as="geometry" />
        </mxCell>
        <mxCell id="Gz_NziJzoW6N0oe-woC1-104" value="" style="endArrow=none;html=1;rounded=0;entryX=0;entryY=0.3333333333333333;entryDx=0;entryDy=0;entryPerimeter=0;exitX=0.5;exitY=0;exitDx=0;exitDy=0;" edge="1" parent="1" source="Gz_NziJzoW6N0oe-woC1-103" target="Gz_NziJzoW6N0oe-woC1-5">
          <mxGeometry width="50" height="50" relative="1" as="geometry">
            <mxPoint x="810" y="1040" as="sourcePoint" />
            <mxPoint x="860" y="990" as="targetPoint" />
          </mxGeometry>
        </mxCell>
        <mxCell id="Gz_NziJzoW6N0oe-woC1-105" value="&amp;lt;&amp;lt;extend&amp;gt;&amp;gt;" style="text;html=1;align=center;verticalAlign=middle;whiteSpace=wrap;rounded=0;" vertex="1" parent="1">
          <mxGeometry x="359" y="400" width="60" height="30" as="geometry" />
        </mxCell>
        <mxCell id="Gz_NziJzoW6N0oe-woC1-106" value="&amp;lt;&amp;lt;extend&amp;gt;&amp;gt;" style="text;html=1;align=center;verticalAlign=middle;whiteSpace=wrap;rounded=0;" vertex="1" parent="1">
          <mxGeometry x="440" y="470" width="60" height="30" as="geometry" />
        </mxCell>
        <mxCell id="Gz_NziJzoW6N0oe-woC1-107" value="&amp;lt;&amp;lt;extend&amp;gt;&amp;gt;" style="text;html=1;align=center;verticalAlign=middle;whiteSpace=wrap;rounded=0;" vertex="1" parent="1">
          <mxGeometry x="400" y="580" width="60" height="30" as="geometry" />
        </mxCell>
        <mxCell id="Gz_NziJzoW6N0oe-woC1-108" value="&amp;lt;&amp;lt;extend&amp;gt;&amp;gt;" style="text;html=1;align=center;verticalAlign=middle;whiteSpace=wrap;rounded=0;" vertex="1" parent="1">
          <mxGeometry x="419" y="780" width="60" height="30" as="geometry" />
        </mxCell>
        <mxCell id="Gz_NziJzoW6N0oe-woC1-109" value="&amp;lt;&amp;lt;extend&amp;gt;&amp;gt;" style="text;html=1;align=center;verticalAlign=middle;whiteSpace=wrap;rounded=0;" vertex="1" parent="1">
          <mxGeometry x="410" y="990" width="60" height="30" as="geometry" />
        </mxCell>
        <mxCell id="Gz_NziJzoW6N0oe-woC1-110" value="&amp;lt;&amp;lt;extend&amp;gt;&amp;gt;" style="text;html=1;align=center;verticalAlign=middle;whiteSpace=wrap;rounded=0;" vertex="1" parent="1">
          <mxGeometry x="420" y="1090" width="60" height="30" as="geometry" />
        </mxCell>
      </root>
    </mxGraphModel>
  </diagram>
</mxfile>
